<svg xmlns="http://www.w3.org/2000/svg" viewBox="0 0 120 116.63655">
  <path d="M110.78958764 113.76509744c1.96064797-3.7433777.3809179-3.06816775-1.27865304-3.06816775-1.83074418 0-1.9203778-.56173399-1.43863457-9.0102871 0 0 1.31012973-6.10930551.51371955-9.01028708-.55868625-2.0350029-8.59563418-8.65374114-8.59563418-8.65374114l-8.59553425-8.65375114-4.78415691 1.12144947c-6.3558929 1.48983664-21.46160579.82621811-28.091196-1.23408605-7.4479841-2.31462582-8.16974958-1.50040882-8.16974958 9.21655433 0 4.67787562.51072177 10.20989867 1.13495947 12.29337567.62603636 2.0894326.77942277 4.6059489.34204668 5.61186392-.43607705 1.00304716-.71566998 2.32759621-.62123992 2.94344013.26760182 1.74492772-6.43143695 6.37472895-9.22376898 6.37472895-3.63730626 0-4.07048545-1.5749636-1.5894229-5.77863042 3.06822771-5.1984201 2.79343122-15.96170895-.76623253-30.00913559-1.435337-5.6642751-1.98722829-6.50776043-5.39670327-8.24716225-4.52974532-2.3108786-5.04266546-3.21739723-7.31158513-12.92288946-.96358638-4.12194734-2.34606253-8.84345065-3.07222474-10.49222958-.72606229-1.64877894-2.28081086-5.69578177-3.45494131-8.99333964-1.17413046-3.29755787-2.96720253-6.5811361-3.35691391-7.63709406-.92591428-2.50933162-7.58038606-3.83962642-11.57192997-3.84881961-6.02303941-.01388971-7.56969398-7.50085496-2.07286486-11.00056312 5.19715105-3.3088595 5.7108706-6.68263092 3.04874214-8.33533694-.6968839-.43264959-1.05461897-1.94236151-1.05461897-3.02742793 0-1.90673789.07794228-1.90003286 2.31278718.199852 1.49149542 1.40116231 3.59174 2.17270092 5.91451978 2.17270092 1.98103287 0 4.966322.78308006 6.63398695 1.74017125 3.02575916 1.73654393 3.03894939 1.73342624 6.37387958-1.49888994 1.83803877-1.78148066 4.0510998-3.67997466 4.54333526-3.2390612 1.69044807 1.51410868 2.10614022 5.9554095-.09692822 8.24496389l-4.57870906 4.75925535 2.94102191 5.60374993c3.62721373 6.91141149 7.20326535 10.10692493 12.05767024 11.31767826 2.40252072.59922622 8.64010124 2.63717694 13.86123453 4.52878604 6.50108538 2.35535565 13.42955423 3.9438892 21.98371912 5.04033718 16.17232297 2.0729548 21.00334518 3.4613066 24.69461147 5.47075842 2.53372355 1.37929851 3.5367807 1.6172223 5.39750267 1.7063563 2.96000785.14181497 2.64853853.31373765 3.4914143-1.70518716 1.11387508-2.66820396 1.08559602-3.239331 2.45678054-5.06784682 1.09329032-1.45798023 2.42710252-2.0006983 4.31820199-.76156599 2.98079246 1.95306359 2.92823139 3.68054423.7064768 6.07076407-2.49824983 2.68764955-6.08809124 7.87321918-6.10068192 11.46014275.24731684 2.79503004-1.12956345 5.193174-2.4981499 8.13311671-3.6766771 7.89789092-3.33503011 10.9803181 1.85972272 16.78012284 4.25734706 4.75307993 4.36326861 5.04218582 5.06734718 13.83109686.39560702 4.93710364 1.19191728 9.5461902 1.76978931 10.24241459.72436355.87280361.72975955 1.65372527.01698742 2.51494746-.56827914.68699122-1.18542209 2.5980759-1.3714843 4.24685483-.29188383 2.58691416-.79631025 3.04166738-3.68067413 3.31798274-3.25518924.31184905-3.32483766.24016214-2.66852372-2.7479649z" />
</svg>
