<?xml version="1.0" encoding="UTF-8" standalone="no"?>
<!-- Created with Inkscape (http://www.inkscape.org/) -->

<svg
   xmlns:dc="http://purl.org/dc/elements/1.1/"
   xmlns:cc="http://creativecommons.org/ns#"
   xmlns:rdf="http://www.w3.org/1999/02/22-rdf-syntax-ns#"
   xmlns:svg="http://www.w3.org/2000/svg"
   xmlns="http://www.w3.org/2000/svg"
   version="1.1"
   width="30"
   height="30"
   id="svg3139">
  <defs
     id="defs3141" />
  <metadata
     id="metadata3144">
    <rdf:RDF>
      <cc:Work
         rdf:about="">
        <dc:format>image/svg+xml</dc:format>
        <dc:type
           rdf:resource="http://purl.org/dc/dcmitype/StillImage" />
        <dc:title></dc:title>
      </cc:Work>
    </rdf:RDF>
  </metadata>
  <g
     transform="matrix(0.84412656,0,0,0.8440903,-301.54746,-434.32381)"
     id="layer1">
    <path
       d="m 783.87836,78.82547 a 10.354065,10.354065 0 1 1 -20.70813,0 10.354065,10.354065 0 1 1 20.70813,0 z"
       transform="matrix(0.73638828,0,0,0.73638828,-194.61423,464.12508)"
       id="path4510-6"
       style="fill:#030f0f;fill-opacity:1;fill-rule:nonzero;stroke:none;display:inline" />
    <g
       transform="translate(-37.110068,66.070976)"
       id="g4455"
       style="display:inline">
      <path
         d="m 783.87836,78.82547 a 10.354065,10.354065 0 1 1 -20.70813,0 10.354065,10.354065 0 1 1 20.70813,0 z"
         transform="matrix(0.73638828,0,0,0.73638828,-167.64939,418.3461)"
         id="path4510-6-4"
         style="fill:#030f0f;fill-opacity:1;fill-rule:nonzero;stroke:none;display:inline" />
      <path
         d="m 783.87836,78.82547 a 10.354065,10.354065 0 1 1 -20.70813,0 10.354065,10.354065 0 1 1 20.70813,0 z"
         transform="matrix(0.73638828,0,0,0.73638828,-147.35892,418.3461)"
         id="path4510-6-1"
         style="fill:#030f0f;fill-opacity:1;fill-rule:nonzero;stroke:none;display:inline" />
    </g>
  </g>
</svg>
