<?xml version="1.0" encoding="UTF-8" standalone="no"?>
<!-- Created with Inkscape (http://www.inkscape.org/) -->

<svg
   xmlns:dc="http://purl.org/dc/elements/1.1/"
   xmlns:cc="http://creativecommons.org/ns#"
   xmlns:rdf="http://www.w3.org/1999/02/22-rdf-syntax-ns#"
   xmlns:svg="http://www.w3.org/2000/svg"
   xmlns="http://www.w3.org/2000/svg"
   version="1.1"
   width="120"
   height="116.63655"
   id="svg3790">
  <defs
     id="defs3792" />
  <metadata
     id="metadata3795">
    <rdf:RDF>
      <cc:Work
         rdf:about="">
        <dc:format>image/svg+xml</dc:format>
        <dc:type
           rdf:resource="http://purl.org/dc/dcmitype/StillImage" />
        <dc:title></dc:title>
      </cc:Work>
    </rdf:RDF>
  </metadata>
  <g
     transform="translate(-314.95556,-474.08709)"
     id="layer1">
    <g
       transform="matrix(0.99925996,0,0,0.99925996,-87.209864,143.18858)"
       id="layer2"
       style="fill:#131617;fill-opacity:1">
      <path
         d="m 513.3349,444.99292 c 1.9621,-3.74615 0.3812,-3.07044 -1.2796,-3.07044 -1.8321,0 -1.9218,-0.56215 -1.4397,-9.01696 0,0 1.3111,-6.11383 0.5141,-9.01696 -0.5591,-2.03651 -8.602,-8.66015 -8.602,-8.66015 l -8.6019,-8.66016 -4.7877,1.12228 c -6.3606,1.49094 -21.4775,0.82683 -28.112,-1.235 -7.4535,-2.31634 -8.1758,-1.50152 -8.1758,9.22338 0,4.68134 0.5111,10.21746 1.1358,12.30248 0.6265,2.09098 0.78,4.60936 0.3423,5.61602 -0.4364,1.00379 -0.7162,2.32932 -0.6217,2.94562 0.2678,1.74622 -6.4362,6.37945 -9.2306,6.37945 -3.64,0 -4.0735,-1.57613 -1.5906,-5.78291 3.0705,-5.20227 2.7955,-15.97353 -0.7668,-30.03136 -1.4364,-5.66847 -1.9887,-6.51258 -5.4007,-8.25327 -4.5331,-2.31259 -5.0464,-3.21978 -7.317,-12.93246 -0.9643,-4.125 -2.3478,-8.85 -3.0745,-10.5 -0.7266,-1.65 -2.2825,-5.7 -3.4575,-9 -1.175,-3.3 -2.9694,-6.58601 -3.3594,-7.64275 -0.9266,-2.51119 -7.586,-3.84247 -11.5805,-3.85167 -6.0275,-0.0139 -7.5753,-7.50641 -2.0744,-11.00871 5.201,-3.31131 5.7151,-6.68758 3.051,-8.34151 -0.6974,-0.43297 -1.0554,-1.9438 -1.0554,-3.02967 0,-1.90815 0.078,-1.90144 2.3145,0.2 1.4926,1.4022 3.5944,2.17431 5.9189,2.17431 1.9825,0 4.97,0.78366 6.6389,1.74146 3.028,1.73783 3.0412,1.73471 6.3786,-1.5 1.8394,-1.7828 4.0541,-3.6827 4.5467,-3.24146 1.6917,1.51523 2.1077,5.95982 -0.097,8.25107 l -4.5821,4.76278 2.9432,5.6079 c 3.6299,6.91653 7.2086,10.11441 12.0666,11.32606 2.4043,0.59967 8.6465,2.63913 13.8715,4.53214 6.5059,2.3571 13.4395,3.94681 22,5.04407 16.1843,2.07449 21.0189,3.46387 24.7129,5.47481 2.5356,1.38032 3.5394,1.61842 5.4015,1.70762 2.9622,0.14192 2.6505,0.31397 3.494,-1.70645 1.1147,-2.67018 1.0864,-3.24173 2.4586,-5.0716 1.0941,-1.45906 2.4289,-2.00218 4.3214,-0.76213 2.983,1.95451 2.9304,3.68327 0.707,6.07526 -2.5001,2.68964 -6.0926,7.87905 -6.1052,11.46863 0.2475,2.7971 -1.1304,5.19702 -2.5,8.13914 -3.6794,7.90374 -3.3375,10.98845 1.8611,16.79255 4.2605,4.7566 4.3665,5.04592 5.0711,13.84134 0.3959,4.94076 1.1928,9.55326 1.7711,10.25 0.7249,0.87345 0.7303,1.65495 0.017,2.51681 -0.5687,0.6875 -1.1863,2.6 -1.3725,4.25 -0.2921,2.58883 -0.7969,3.04392 -3.6834,3.32044 -3.2576,0.31208 -3.3273,0.24034 -2.6705,-2.75 z"
         id="path3107-6"
         style="fill:#131617;fill-opacity:1" />
    </g>
  </g>
</svg>
