<?xml version="1.0" encoding="UTF-8" standalone="no"?>
<!-- Created with Inkscape (http://www.inkscape.org/) -->

<svg
   xmlns:dc="http://purl.org/dc/elements/1.1/"
   xmlns:cc="http://creativecommons.org/ns#"
   xmlns:rdf="http://www.w3.org/1999/02/22-rdf-syntax-ns#"
   xmlns:svg="http://www.w3.org/2000/svg"
   xmlns="http://www.w3.org/2000/svg"
   version="1.1"
   width="300"
   height="321.06656"
   id="svg3054">
  <defs
     id="defs3056" />
  <metadata
     id="metadata3059">
    <rdf:RDF>
      <cc:Work
         rdf:about="">
        <dc:format>image/svg+xml</dc:format>
        <dc:type
           rdf:resource="http://purl.org/dc/dcmitype/StillImage" />
        <dc:title></dc:title>
      </cc:Work>
    </rdf:RDF>
  </metadata>
  <g
     transform="translate(-168.31579,-334.23328)"
     id="layer1">
    <path
       d="m 467.45699,472.80816 c -12.60359,0.74012 -161.28528,47.32673 -161.28528,47.32673 l -6.37653,8.62879 -130.57264,37.29393 c 1.5556,4.13368 -0.90675,89.24218 -0.90675,89.24218 l 8.48254,0 0,-32.4969 5.08953,0 c 1.32287,1.38906 2.74918,3.05437 4.27052,4.97252 1.5213,1.88514 3.04168,3.82883 4.56302,5.87928 1.55437,2.05049 3.05314,4.1175 4.47527,6.20103 1.45515,2.05048 2.73654,3.97639 3.86102,5.76228 l 0,-22.81511 6.20103,0 0,32.4969 14.15707,0 c -0.85105,-0.54928 -1.63408,-1.18205 -2.36926,-1.90126 -1.48826,-1.52131 -2.67558,-3.39636 -3.56852,-5.64527 -0.89295,-2.24889 -1.34551,-4.83711 -1.34551,-7.78054 0,-2.94341 0.45256,-5.53543 1.34551,-7.75129 0.89294,-2.24888 2.07644,-4.12393 3.59777,-5.64528 1.55438,-1.52128 3.3646,-2.66157 5.38202,-3.42226 2.01739,-0.76063 4.1276,-1.14072 6.37653,-1.14076 2.24888,4e-5 4.38836,0.38013 6.40578,1.14076 2.01737,0.76069 3.77675,1.90098 5.26503,3.42226 1.52129,1.52135 2.73403,3.3964 3.62702,5.64528 0.89291,2.21586 1.31622,4.80788 1.31625,7.75129 -3e-5,2.94343 -0.42334,5.53165 -1.31625,7.78054 -0.85991,2.24891 -2.04723,4.12396 -3.56852,5.64527 -0.71923,0.71921 -1.52647,1.35198 -2.36926,1.90126 l 14.06932,0 0,-31.99965 c 1.58745,-0.36376 3.27436,-0.60275 5.06027,-0.702 1.78589,-0.0992 3.37873,-0.14622 4.76777,-0.14626 2.87726,4e-5 5.51633,0.35853 7.89754,1.05301 2.38117,0.66147 4.39732,1.70387 6.08403,3.15901 1.71972,1.42213 3.05197,3.25398 3.97802,5.46978 0.92599,2.18278 1.37472,4.79642 1.37476,7.83904 -4e-5,2.97651 -0.44877,5.56471 -1.37476,7.78054 -0.92605,2.18277 -2.2583,4.01079 -3.97802,5.49902 -0.91314,0.7878 -1.9449,1.47297 -3.07126,2.04751 l 15.29782,0 0,-32.4969 22.08386,0 0,5.29427 -15.82433,0 0,8.48254 14.09857,0 0,5.23578 -14.09857,0 0,10.06205 17.02358,0 0,3.42226 10.2083,0 c -0.93147,-0.5994 -1.77841,-1.27556 -2.54476,-2.07676 -1.42211,-1.52131 -2.54079,-3.40018 -3.33452,-5.61602 -0.79373,-2.21583 -1.17,-4.75699 -1.17,-7.63429 0,-2.87726 0.42712,-5.41843 1.287,-7.63429 0.89294,-2.2158 2.1057,-4.09468 3.62702,-5.61602 1.52131,-1.55436 3.30229,-2.71625 5.35278,-3.51002 2.05046,-0.7937 4.23696,-1.19922 6.55203,-1.19926 1.58744,4e-5 2.98832,0.11953 4.21202,0.351 1.25672,0.19847 2.32454,0.40821 3.21751,0.67276 0.89292,0.26461 1.63151,0.55064 2.19377,0.84825 0.59527,0.29769 0.99696,0.51125 1.2285,0.6435 l -1.87201,5.11878 c -0.99219,-0.59527 -2.2558,-1.09486 -3.74402,-1.49176 -1.45519,-0.4299 -2.97175,-0.64347 -4.59227,-0.6435 -3.53873,3e-5 -6.24643,1.11871 -8.13154,3.33452 -1.85205,2.18279 -2.77877,5.22355 -2.77876,9.12604 -1e-5,1.85205 0.21356,3.53515 0.6435,5.08952 0.46301,1.52133 1.09987,2.82815 1.95976,3.91952 0.89294,1.09139 1.98619,1.9749 3.27602,2.60327 1.32287,0.5953 2.86867,0.87751 4.62152,0.8775 1.09136,10e-6 2.04351,-0.0216 2.83726,-0.0877 0.79371,-0.0992 1.40898,-0.21871 1.87201,-0.35101 l 0,-12.34356 6.25953,0 0,15.61958 13.16257,0 c -0.85054,-0.54909 -1.63446,-1.18243 -2.36926,-1.90126 -1.48826,-1.52132 -2.67558,-3.39637 -3.56852,-5.64528 -0.89295,-2.24889 -1.34551,-4.8371 -1.34551,-7.78053 0,-2.94341 0.45256,-5.53543 1.34551,-7.75129 0.89294,-2.24888 2.10569,-4.12393 3.62702,-5.64528 1.55438,-1.52129 3.33535,-2.66157 5.35277,-3.42227 2.01739,-0.76062 4.15685,-1.14071 6.40578,-1.14075 2.24888,4e-5 4.35911,0.38013 6.37653,1.14075 2.01737,0.7607 3.77675,1.90098 5.26503,3.42227 1.52129,1.52135 2.73403,3.3964 3.62702,5.64528 0.89291,2.21586 1.34547,4.80788 1.3455,7.75129 -3e-5,2.94343 -0.45259,5.53164 -1.3455,7.78053 -0.85991,2.24891 -2.04723,4.12396 -3.56852,5.64528 -0.71885,0.71883 -1.49773,1.35217 -2.34001,1.90126 l 9.9743,0 c 1.0425,-2.9401 2.0599,-5.71867 3.01276,-8.27779 1.15752,-3.10877 2.27238,-6.05546 3.36377,-8.83354 1.12444,-2.77805 2.24312,-5.44253 3.33451,-7.95604 1.09137,-2.51345 2.20623,-4.98217 3.36377,-7.42954 l 5.90853,0 c 1.1575,2.44737 2.27236,4.91609 3.36376,7.42954 1.09136,2.51351 2.18461,5.17799 3.27602,7.95604 1.12442,2.77808 2.26471,5.72477 3.42227,8.83354 0.98006,2.55912 2.02392,5.33769 3.07126,8.27779 l 9.30155,0 0,-27.08563 -10.58856,0 0,-5.41128 27.43664,0 0,5.41128 -10.5593,0 0,27.08563 19.39284,0 c 0,0 0.83768,-36.50666 -0.468,-40.62845 -13.79225,-43.5389 10.7933,-106.17801 10.7933,-106.17801 l -5.79153,-0.819 c 0,0 4.61174,-14.63286 11.96331,-34.63217 0.0723,-0.19649 -0.2284,-0.2704 -0.84825,-0.234 z m -238.65191,154.704 c -1.58748,3e-5 -3.01379,0.31148 -4.27052,0.90675 -1.25675,0.59533 -2.35383,1.42416 -3.24676,2.51552 -0.85989,1.0914 -1.49676,2.39822 -1.95976,3.91951 -0.46303,1.52135 -0.70202,3.23368 -0.70201,5.11878 -10e-6,1.88513 0.23898,3.59365 0.70201,5.14802 0.463,1.52133 1.09987,2.82815 1.95976,3.91952 0.89293,1.05832 1.99001,1.89098 3.24676,2.48626 1.25673,0.59531 2.68304,0.90677 4.27052,0.90676 1.55437,1e-5 2.95526,-0.31145 4.21202,-0.90676 1.25672,-0.59528 2.29912,-1.42794 3.15902,-2.48626 0.89292,-1.09137 1.58447,-2.39819 2.04751,-3.91952 0.46298,-1.55437 0.70197,-3.26289 0.702,-5.14802 -3e-5,-1.8851 -0.23902,-3.59743 -0.702,-5.11878 -0.46304,-1.55436 -1.15459,-2.86118 -2.04751,-3.91951 -0.8599,-1.09136 -1.9023,-1.92019 -3.15902,-2.51552 -1.25676,-0.59527 -2.65765,-0.90672 -4.21202,-0.90675 z m 136.51041,0 c -1.58748,3e-5 -3.01379,0.31148 -4.27052,0.90675 -1.25675,0.59533 -2.32458,1.42416 -3.21751,2.51552 -0.85989,1.0914 -1.52601,2.39822 -1.98901,3.91951 -0.46303,1.52135 -0.70202,3.23368 -0.70201,5.11878 -10e-6,1.88513 0.23898,3.59365 0.70201,5.14802 0.463,1.52133 1.12912,2.82815 1.98901,3.91952 0.89293,1.05832 1.96076,1.89098 3.21751,2.48626 1.25673,0.59531 2.68304,0.90677 4.27052,0.90676 1.55437,1e-5 2.95526,-0.31145 4.21202,-0.90676 1.25672,-0.59528 2.32837,-1.42794 3.18827,-2.48626 0.89292,-1.09137 1.55522,-2.39819 2.01826,-3.91952 0.46298,-1.55437 0.70197,-3.26289 0.702,-5.14802 -3e-5,-1.8851 -0.23902,-3.59743 -0.702,-5.11878 -0.46304,-1.55436 -1.12534,-2.86118 -2.01826,-3.91951 -0.8599,-1.09136 -1.93155,-1.92019 -3.18827,-2.51552 -1.25676,-0.59527 -2.65765,-0.90672 -4.21202,-0.90675 z m -102.81424,0.351 c -1.85206,3e-5 -3.1843,0.0471 -3.97802,0.14625 l 0,24.01437 c 0.36378,0.033 0.83794,0.0547 1.43325,0.0877 l 2.42776,0 c 4.20015,10e-6 7.3388,-1.04239 9.3893,-3.15901 2.08352,-2.14969 3.12974,-5.14341 3.12977,-8.9798 -3e-5,-3.90249 -1.02464,-6.89622 -3.04202,-8.97979 -2.01743,-2.08352 -5.12682,-3.12974 -9.36004,-3.12977 z m 138.11916,1.57951 c -0.76067,1.75284 -1.64036,3.89232 -2.63251,6.40578 -0.95911,2.5135 -1.95447,5.24663 -3.01276,8.19004 l 11.29055,0 c -1.05833,-2.94341 -2.07912,-5.70196 -3.07127,-8.24854 -0.99218,-2.54653 -1.84644,-4.66057 -2.57401,-6.34728 z m -217.67955,3.12976 0,22.72736 15.88283,0 c -0.8223,-1.33961 -1.68787,-2.72078 -2.63252,-4.18277 -1.38904,-2.18275 -2.84079,-4.34001 -4.32902,-6.52278 -1.48826,-2.21582 -3.00864,-4.35529 -4.56302,-6.40578 -1.52133,-2.08353 -2.96925,-3.9624 -4.35827,-5.61603 z m 210.42552,16.52633 c -0.46303,1.38904 -0.93719,2.76832 -1.43326,4.12427 l -0.73125,2.07676 18.86634,0 c -0.25483,-0.71393 -0.49631,-1.4307 -0.76051,-2.13526 -0.49611,-1.32288 -0.97027,-2.67673 -1.43325,-4.06577 l -14.50807,0 z"
       id="path3077"
       style="fill:#131617;fill-opacity:1;stroke:none;display:inline" />
    <path
       d="m 440.01668,334.23407 c 0.20981,0.0293 0.10005,0.69171 -0.0146,1.6382 -0.13105,1.08069 -0.87607,2.27368 -0.94008,2.8457 -0.17345,1.55019 1.36278,3.30594 3.42786,3.91854 1.58152,0.46919 11.7368,1.05535 18.23276,1.03776 1.62939,-0.005 3.1054,0.0726 3.2777,0.17571 0.17231,0.10312 0.44062,0.72672 0.59717,1.36952 0.21367,0.87744 0.43283,1.17152 0.88835,1.22069 0.33372,0.036 1.09059,0.70262 1.68041,1.47693 0.9361,1.22889 0.99923,1.50229 0.51719,2.24776 -0.31333,0.48452 -0.40091,1.44792 -0.2143,2.225 0.49855,2.076 -0.396,3.89245 -2.49983,5.08262 -2.59481,1.46791 -3.22074,2.11634 -5.01368,5.28041 -1.68882,2.98035 -0.93964,5.1969 -1.85893,4.78443 -0.71761,-0.6944 -1.80176,-2.1559 -2.51183,-2.87362 -0.42946,-0.56377 -0.72397,-0.48058 -2.56847,0.63703 -1.14446,0.69344 -3.03299,1.68368 -4.22166,2.23126 -3.84367,1.77059 -4.18427,2.16985 -4.71757,5.68729 -0.60661,4.00107 -0.48558,4.7279 1.69319,9.52094 0.99348,2.18557 2.53624,5.94598 3.43801,8.36465 2.79514,7.49695 3.08449,11.83965 0.73812,13.97557 -0.54118,2.36155 -2.24512,3.85554 -1.18673,4.71998 1.87301,1.52975 -2.63265,1.94413 -1.87733,2.70775 1.55165,1.56867 0.12701,1.97101 0.31657,2.71756 0.56931,2.24207 -1.24496,1.03586 -2.328,1.36619 -0.18848,1.18291 -1.07252,1.19969 -0.91238,2.66995 0.2082,1.91127 0.5036,2.56871 -0.47805,2.16883 -0.95622,-0.38952 0.35151,0.67512 -0.12524,2.37046 -0.34724,1.23469 0.60324,1.5558 -0.61861,2.81361 -1.22188,1.25782 -2.15287,2.48558 -2.08209,2.70958 0.0707,0.22398 1.04531,2.78449 -0.12495,5.7051 -1.17023,2.92064 -1.98941,5.75671 -1.81621,6.30513 0.17324,0.5484 0.0573,2.50153 -0.25388,4.36069 -0.45436,2.71448 -0.0317,5.19339 2.18838,12.58791 2.75354,9.17108 4.75616,13.07732 7.53167,14.79292 2.5174,1.55607 3.51794,3.99582 2.21185,5.33339 -1.91652,1.96266 -3.35167,2.0275 -6.66618,0.35163 -2.89144,-1.462 -3.14925,-1.83843 -3.52522,-4.99999 -0.45905,-3.86038 -1.51598,-6.66043 -4.01396,-10.64116 l -1.72054,-2.70513 -1.29439,5.77397 c -2.3352,10.37054 -0.95087,21.30667 2.92489,23.08261 1.0874,0.49828 2.07275,1.16873 2.17791,1.50176 0.10519,0.33309 -0.55833,0.69847 -1.45545,0.80269 -0.89716,0.10412 -1.52434,0.51254 -1.39592,0.91916 0.24668,0.78112 -3.20374,1.26433 -5.87231,0.81257 -1.77418,-0.30033 -3.504,-4.62094 -2.57243,-6.4125 0.41195,-0.7922 0.1904,-1.4712 -0.75248,-2.39194 -1.05305,-1.02828 -1.12884,-2.10827 -0.42897,-5.49542 0.64682,-3.13028 0.52215,-5.51319 -0.49034,-9.12208 -1.05126,-3.74708 -1.13043,-5.6233 -0.33474,-8.07039 0.56972,-1.75236 0.92761,-4.88003 0.81605,-6.93978 -0.17115,-3.15849 -0.50868,-4.00067 -2.12515,-5.45116 -2.3291,-2.03935 -3.48476,-6.80423 -12.35089,-4.07349 -1.1966,1.0113 -3.27006,2.34291 -4.59568,2.9366 -1.32562,0.59366 -2.44321,-0.693 -2.6961,-0.56114 -0.52729,0.27488 -1.03337,2.22115 -1.85379,2.06401 -2.23212,-0.42749 -0.86274,-1.01797 -3.46744,-1.78284 -1.00994,-0.29659 1.18395,3.18318 -1.99305,2.85503 -1.89474,-0.19572 -4.31669,-0.0834 -5.37998,0.25276 -1.06329,0.33576 -1.09498,2.32938 -3.11513,1.66567 -1.97993,-0.6505 -4.35924,2.92876 -5.41988,-0.94652 -2.08818,4.16541 0.58216,11.84494 -4.94574,16.24904 2.30804,4.15642 0.0616,3.23196 0.0432,4.88458 l 1.17669,4.0555 c 1.88254,6.49891 11.47389,17.63658 16.3737,19.01452 1.17326,0.32994 3.59699,1.36882 5.37332,2.29249 3.02794,1.57447 3.17153,1.75642 2.1924,3.13971 -1.34579,1.90128 -4.56925,2.93961 -8.10866,2.61671 -2.31747,-0.21143 -4.07604,-1.53174 -10.10058,-7.6036 -4.0055,-4.03694 -7.5822,-7.42306 -7.9646,-7.53475 -0.3824,-0.11177 -2.29877,-1.40733 -4.23778,-2.88757 -1.93901,-1.48026 -4.30687,-3.28299 -5.2716,-4.01922 -1.64233,-1.25331 -1.69933,-1.68696 -0.81982,-6.69128 0.51688,-2.93967 0.66403,-6.24021 0.31518,-7.34487 -0.0998,-0.27111 -1.82581,1.39278 -3.15711,-3.07267 -0.3802,-1.35795 -7.11131,-4.52697 -8.35026,-4.84023 -6.01669,10.21599 -2.56377,14.07108 -6.6681,13.33917 l -1.46008,3.5816 c -1.47288,1.54719 -1.65581,4.60464 -1.87886,5.83766 -0.22304,1.23302 -1.21521,4.07054 -2.19644,6.3085 -1.56649,3.57267 -1.63616,4.89548 -0.66458,10.82885 1.55633,9.50455 2.38853,11.67511 5.68818,14.72151 l 2.8905,2.69476 -2.97406,1.0794 c -1.64464,0.59689 -3.53617,1.28107 -4.19863,1.52902 -1.89262,0.70839 -5.00967,-4.00994 -5.15904,-7.82289 -0.0671,-1.71243 -1.66462,-8.78443 -3.56158,-15.70564 -3.12269,-11.39326 -3.36015,-12.80664 -2.38434,-14.89702 3.25078,-6.96382 6.21591,-11.76718 1.77126,-21.28139 -1.68178,-3.60004 1.67961,-1.64411 0.54273,-4.77277 -1.13692,-3.12865 -2.61254,-7.0247 -2.78161,-7.43634 -0.30505,-0.74283 -1.05904,2.76385 -1.21154,5.74589 -0.19439,3.80099 -1.30773,6.24243 -3.43921,1.48802 -3.20699,-6.07811 -0.73004,-19.69233 0.43999,-21.23248 1.94384,-2.04219 0.59393,-6.57573 3.43163,-10.38182 2.56469,-3.58272 4.90557,-5.30056 6.88495,-7.02393 5.92896,-6.47003 41.2163,-10.40272 58.71444,-21.21363 7.90774,-6.88748 11.34274,-8.49077 19.63969,-12.92866 1.82263,-1.55428 2.15355,-4.71244 2.09803,-6.73228 -0.0261,-4.71137 -0.25852,-5.55032 -0.57433,-8.13236 -0.39365,-3.2185 0.83964,-12.39764 1.89403,-14.02815 l 0.63467,-1.00017 c -5.64976,-1.34593 -10.07626,0.57167 -12.46729,2.59682 -3.39954,2.51446 -4.774,4.03687 -5.29142,8.48628 -0.0498,0.4457 0.21305,1.50443 0.31166,2.16183 0.13897,0.68517 -0.1695,1.04734 -0.57946,0.35237 -0.63231,-1.27744 -1.66557,-2.95327 -0.62812,-7.8886 1.21421,-5.77621 4.66147,-8.6787 10.72943,-11.38971 -3.93071,0.44247 -7.08498,1.72975 -8.93299,3.0797 -3.15649,2.30577 -4.18933,3.60372 -6.48163,10.25345 -0.2104,0.97063 -0.65238,0.33498 -0.72803,-0.14115 -0.0867,-0.48281 -0.97343,-3.27987 0.23038,-6.68248 1.61329,-4.39712 4.00083,-7.14901 9.60213,-9.80169 3.276,-1.55146 8.61919,-2.83272 11.58515,-2.90871 2.37394,-0.0608 6.01804,0.61297 7.23824,1.48619 0.89236,-1.0347 2.50944,-2.3396 3.36878,-2.75023 0.58957,-0.28174 2.30226,-0.88332 3.82151,-1.17467 2.04742,-0.3926 4.92538,-1.12139 6.20541,-2.83385 0.7085,-0.94784 1.08339,-1.29164 1.24656,-1.26886 z"
       id="path3083"
       style="fill:#131617;fill-opacity:1;stroke:none;display:inline" />
  </g>
</svg>
